<?xml version="1.0" encoding="UTF-8" ?>
<!DOCTYPE svg PUBLIC "-//W3C//DTD SVG 1.1//EN" "http://www.w3.org/Graphics/SVG/1.1/DTD/svg11.dtd">
<svg width="241pt" height="163pt" viewBox="0 0 241 163" version="1.1" xmlns="http://www.w3.org/2000/svg">
<g id="#3b3b3dfc">
<path fill="#3b3b3d" opacity="1.00" d=" M 115.99 0.00 L 116.56 0.00 C 117.21 1.34 117.81 2.70 118.41 4.05 C 119.12 2.78 119.83 1.52 120.56 0.26 C 120.30 3.37 119.70 6.43 118.91 9.45 C 118.07 8.30 117.23 7.15 116.41 6.00 C 115.72 7.14 115.03 8.27 114.34 9.39 C 113.49 6.48 112.75 3.54 112.15 0.57 C 113.03 1.99 113.88 3.42 114.73 4.86 C 115.15 3.24 115.57 1.62 115.99 0.00 Z" />
<path fill="#3b3b3d" opacity="1.00" d=" M 129.01 0.00 L 131.23 0.00 C 131.80 3.13 131.84 6.31 131.47 9.47 C 130.13 9.47 128.79 9.48 127.45 9.48 C 127.09 6.24 127.02 2.78 129.01 0.00 M 129.00 1.48 C 128.78 3.87 128.72 6.26 128.87 8.65 C 130.90 6.91 131.78 2.94 129.00 1.48 Z" />
<path fill="#3b3b3d" opacity="1.00" d=" M 139.30 1.11 C 140.46 1.50 141.63 1.90 142.81 2.29 C 142.69 5.02 142.46 7.78 141.56 10.38 C 140.95 8.93 140.36 7.47 139.79 6.01 C 139.17 7.56 138.45 9.08 137.35 10.34 C 137.52 8.24 137.82 6.16 138.16 4.09 C 139.30 4.38 140.44 4.68 141.58 4.98 C 141.64 4.55 141.76 3.70 141.83 3.27 C 141.02 3.30 139.40 3.36 138.59 3.39 C 138.77 2.82 139.12 1.68 139.30 1.11 Z" />
<path fill="#3b3b3d" opacity="1.00" d=" M 91.18 3.39 C 92.76 3.33 94.35 3.26 95.95 3.20 C 94.87 4.12 93.80 5.03 92.73 5.95 C 93.78 6.42 94.84 6.88 95.89 7.34 C 95.16 8.11 94.43 8.88 93.71 9.65 C 94.95 10.30 96.19 10.94 97.41 11.61 C 95.87 11.62 94.34 11.62 92.80 11.59 C 92.31 8.85 91.75 6.12 91.18 3.39 Z" />
<path fill="#3b3b3d" opacity="1.00" d=" M 147.19 11.81 C 148.15 8.70 149.13 5.56 150.72 2.70 C 150.64 5.17 150.27 7.61 149.74 10.01 C 150.44 10.71 151.14 11.41 151.85 12.11 C 151.46 12.02 150.68 11.84 150.30 11.75 C 149.52 11.77 147.96 11.80 147.19 11.81 Z" />
<path fill="#3b3b3d" opacity="1.00" d=" M 83.48 4.66 C 85.85 7.19 86.44 10.69 87.04 13.97 C 86.00 12.77 84.98 11.56 83.96 10.35 C 83.84 11.39 83.61 13.49 83.49 14.54 C 82.09 11.78 80.99 8.87 80.17 5.88 C 81.45 6.99 82.69 8.12 83.95 9.26 C 83.78 7.72 83.61 6.19 83.48 4.66 Z" />
<path fill="#3b3b3d" opacity="1.00" d=" M 160.10 6.01 C 161.30 6.22 162.50 6.44 163.71 6.66 C 163.84 9.82 163.02 13.09 160.07 14.77 C 160.94 12.32 161.81 9.86 162.29 7.30 C 159.67 8.66 159.53 11.66 159.07 14.21 C 158.59 14.08 157.61 13.81 157.13 13.68 C 158.13 11.12 159.12 8.57 160.10 6.01 Z" />
<path fill="#3b3b3d" opacity="1.00" d=" M 68.87 9.70 C 70.88 9.19 72.89 8.66 74.90 8.14 C 74.30 9.03 73.69 9.91 73.09 10.80 C 74.08 12.91 75.05 15.04 75.81 17.24 C 73.01 15.15 72.09 11.36 68.87 9.70 Z" />
<path fill="#3b3b3d" opacity="1.00" d=" M 175.31 20.30 C 176.75 17.66 178.27 15.08 179.90 12.56 C 181.05 13.25 182.20 13.94 183.35 14.64 C 182.37 14.70 180.41 14.84 179.43 14.90 C 179.90 15.87 180.37 16.84 180.84 17.80 C 179.51 18.14 178.18 18.49 176.86 18.86 C 177.88 19.91 178.90 20.97 179.92 22.03 C 178.37 21.47 176.84 20.89 175.31 20.30 Z" />
<path fill="#3b3b3d" opacity="1.00" d=" M 50.72 18.70 C 52.06 18.06 53.41 17.43 54.76 16.82 C 54.06 17.99 53.36 19.16 52.67 20.33 C 54.10 20.43 55.54 20.50 56.97 20.55 C 56.22 21.48 55.47 22.40 54.72 23.33 C 56.20 23.46 57.67 23.57 59.14 23.67 C 58.06 24.53 56.97 25.37 55.88 26.21 C 54.10 23.75 52.38 21.25 50.72 18.70 Z" />
<path fill="#3b3b3d" opacity="1.00" d=" M 188.11 19.39 C 188.45 20.61 188.79 21.83 189.14 23.05 C 189.74 22.61 190.35 22.17 190.97 21.74 C 191.97 21.04 193.01 20.39 194.07 19.78 C 191.95 22.69 189.16 25.00 186.22 27.04 C 186.35 26.44 186.59 25.26 186.71 24.66 C 186.73 24.60 186.76 24.47 186.77 24.40 C 187.19 22.73 187.66 21.06 188.11 19.39 Z" />
<path fill="#3b3b3d" opacity="1.00" d=" M 40.93 24.71 C 42.23 24.16 43.49 23.45 44.90 23.23 C 47.47 24.70 48.86 27.47 50.49 29.83 C 48.99 29.07 47.51 28.29 46.02 27.52 C 46.62 29.06 47.22 30.60 47.79 32.16 C 45.28 29.88 43.08 27.31 40.93 24.71 M 43.48 24.98 C 42.54 26.29 44.76 27.83 45.72 26.58 C 46.68 25.27 44.43 23.69 43.48 24.98 Z" />
<path fill="#3b3b3d" opacity="1.00" d=" M 193.97 31.05 C 194.93 28.22 197.00 26.03 199.00 23.91 C 199.53 24.16 200.60 24.67 201.14 24.93 C 201.34 25.31 201.75 26.07 201.95 26.45 C 200.54 26.49 199.13 26.53 197.73 26.61 C 198.48 27.63 199.24 28.65 200.00 29.67 C 199.01 29.47 198.01 29.28 197.02 29.08 C 196.68 29.30 195.99 29.74 195.64 29.95 C 195.22 30.23 194.39 30.77 193.97 31.05 Z" />
<path fill="#3b3b3d" opacity="1.00" d=" M 34.94 28.94 C 38.10 30.43 40.56 33.04 42.12 36.14 C 39.04 34.55 36.57 31.99 34.94 28.94 Z" />
<path fill="#3b3b3d" opacity="1.00" d=" M 26.98 36.77 C 27.96 35.89 28.95 35.00 29.93 34.12 C 30.93 34.84 31.93 35.55 32.93 36.27 C 32.75 37.42 32.57 38.57 32.40 39.72 C 33.28 40.80 34.15 41.89 34.99 43.00 C 31.94 41.46 29.43 39.12 26.98 36.77 M 29.45 36.25 C 28.58 37.40 30.57 38.80 31.48 37.79 C 32.35 36.64 30.36 35.25 29.45 36.25 Z" />
<path fill="#3b3b3d" opacity="1.00" d=" M 210.15 45.25 C 212.38 42.48 214.52 39.63 216.58 36.72 C 216.39 38.04 216.19 39.37 215.98 40.70 C 217.43 40.61 218.88 40.52 220.33 40.48 C 218.39 41.69 216.21 42.45 213.99 42.93 C 213.00 43.08 212.26 43.59 211.76 44.47 C 211.36 44.67 210.55 45.06 210.15 45.25 Z" />
<path fill="#3b3b3d" opacity="1.00" d=" M 20.81 42.22 C 21.70 42.17 23.47 42.06 24.35 42.00 C 23.45 42.89 22.55 43.79 21.66 44.68 C 24.05 44.77 26.43 44.85 28.82 45.02 C 28.71 46.32 28.59 47.62 28.47 48.92 C 27.13 48.59 25.78 48.25 24.45 47.86 C 25.05 47.74 26.24 47.50 26.83 47.38 C 27.15 47.11 27.79 46.57 28.10 46.30 C 25.72 46.17 23.34 46.04 20.96 45.87 C 20.91 44.65 20.86 43.44 20.81 42.22 Z" />
<path fill="#3b3b3d" opacity="1.00" d=" M 215.97 50.94 C 218.83 48.96 221.79 47.10 224.94 45.61 C 225.05 47.02 226.50 48.85 225.05 50.00 C 223.59 51.37 221.83 52.47 219.92 53.06 C 218.27 53.34 217.19 51.76 215.97 50.94 M 218.42 52.15 C 220.96 51.45 223.25 50.07 224.51 47.69 C 222.02 48.44 219.58 49.66 218.42 52.15 Z" />
<path fill="#3b3b3d" opacity="1.00" d=" M 15.74 49.57 C 17.05 50.08 18.36 50.60 19.67 51.13 L 19.63 51.68 C 19.57 52.41 19.53 53.13 19.50 53.86 C 19.50 55.09 20.34 56.12 20.76 57.23 C 17.99 55.60 15.23 53.93 12.66 51.99 C 14.18 51.98 15.70 51.98 17.22 51.99 C 16.85 51.39 16.11 50.18 15.74 49.57 Z" />
<path fill="#3b3b3d" opacity="1.00" d=" M 221.86 58.74 C 225.21 57.30 228.69 56.15 232.23 55.27 C 230.33 58.42 227.60 60.97 224.42 62.79 C 224.93 61.61 225.45 60.45 225.97 59.28 C 224.60 59.11 223.23 58.94 221.86 58.74 Z" />
<path fill="#3b3b3d" opacity="1.00" d=" M 7.76 57.20 C 11.27 58.35 15.12 59.57 17.33 62.75 C 13.89 61.41 10.30 60.00 7.76 57.20 Z" />
<path fill="#3b3b3d" opacity="1.00" d=" M 228.93 68.87 C 231.83 66.92 234.50 64.65 236.91 62.12 C 236.62 63.37 236.34 64.63 236.07 65.89 C 237.17 66.38 238.27 66.86 239.38 67.35 C 235.86 67.63 232.37 68.10 228.93 68.87 Z" />
</g>
<g id="#1111124a">
<path fill="#111112" opacity="0.29" d=" M 150.30 11.75 C 150.68 11.84 151.46 12.02 151.85 12.11 C 151.01 13.51 150.49 13.39 150.30 11.75 Z" />
</g>
<g id="#1d1d1e7d">
<path fill="#1d1d1e" opacity="0.49" d=" M 188.11 19.39 C 188.82 18.81 189.54 18.23 190.25 17.65 C 190.48 19.01 190.70 20.38 190.97 21.74 C 190.35 22.17 189.74 22.61 189.14 23.05 C 188.79 21.83 188.45 20.61 188.11 19.39 Z" />
</g>
<g id="#1515165e">
<path fill="#151516" opacity="0.37" d=" M 186.71 24.66 C 186.73 24.60 186.76 24.47 186.77 24.40 C 186.76 24.47 186.73 24.60 186.71 24.66 Z" />
</g>
<g id="#3c3c3eff">
<path fill="#3c3c3e" opacity="1.00" d=" M 200.93 36.81 C 202.88 33.88 205.43 31.44 208.02 29.08 C 208.94 30.30 209.85 31.53 210.77 32.75 C 210.29 33.05 209.34 33.65 208.86 33.94 C 208.53 32.92 208.21 31.91 207.88 30.89 C 207.18 31.77 206.47 32.65 205.78 33.54 C 206.50 33.63 207.95 33.81 208.67 33.90 C 207.17 35.63 205.65 37.36 204.09 39.05 C 204.50 37.57 204.92 36.11 205.35 34.64 C 203.87 35.37 202.41 36.10 200.93 36.81 Z" />
<path fill="#3c3c3e" opacity="1.00" d=" M 112.51 40.51 C 115.59 37.90 117.77 33.76 122.01 32.89 C 126.13 32.07 129.67 34.91 132.38 37.63 C 143.04 48.56 152.08 60.91 161.79 72.66 C 165.61 69.52 169.17 66.00 173.42 63.42 C 176.03 61.78 179.93 61.31 182.24 63.73 C 194.73 79.61 209.37 93.69 222.34 109.20 C 215.30 109.30 208.19 109.81 201.19 109.05 C 198.01 107.01 195.45 104.07 193.76 100.70 C 195.09 100.21 196.42 99.72 197.75 99.22 C 196.10 97.27 194.68 94.89 192.27 93.79 C 188.25 92.86 183.81 93.94 180.04 91.87 C 176.06 89.85 175.25 84.80 171.72 82.27 C 170.06 80.82 167.40 79.81 165.58 81.59 C 160.74 85.76 158.16 92.13 152.73 95.71 C 146.98 99.27 140.07 100.56 133.37 100.34 C 139.44 92.90 147.12 87.00 153.65 80.00 C 150.95 78.21 148.10 76.52 145.97 74.03 C 141.84 69.20 139.75 63.04 135.92 58.01 C 134.58 56.03 131.85 55.51 129.80 56.67 C 125.55 58.19 123.23 62.20 120.31 65.32 C 115.88 69.39 109.42 68.41 103.95 67.99 C 99.86 67.61 97.02 71.08 94.57 73.81 C 96.01 74.77 97.44 75.74 98.86 76.73 C 96.94 78.63 94.97 80.45 92.94 82.22 C 98.87 88.54 105.70 93.98 111.25 100.64 C 104.62 100.58 97.78 99.44 92.01 96.02 C 86.45 92.60 83.75 86.31 79.11 81.93 C 77.89 80.65 75.84 80.15 74.29 81.14 C 70.37 82.96 69.09 87.37 66.34 90.35 C 62.82 93.72 57.66 93.18 53.20 93.52 C 49.85 93.84 48.17 97.18 46.56 99.69 C 47.52 99.89 49.45 100.27 50.41 100.47 C 48.99 104.13 46.20 107.14 42.84 109.12 C 35.97 109.72 29.02 109.36 22.13 109.16 C 33.47 95.25 46.28 82.59 57.93 68.93 C 60.10 66.16 62.04 62.20 66.08 62.09 C 71.02 62.12 74.26 66.39 78.19 68.72 C 79.37 68.76 80.15 67.64 81.06 67.06 C 91.45 58.10 102.10 49.44 112.51 40.51 Z" />
<path fill="#3c3c3e" opacity="1.00" d=" M 4.97 80.53 C 5.63 79.27 6.28 78.02 6.93 76.77 C 7.59 78.05 8.25 79.32 8.91 80.60 C 10.60 80.52 12.29 80.43 13.97 80.34 C 12.63 81.30 11.28 82.27 9.94 83.24 C 10.27 84.76 10.61 86.29 10.95 87.81 C 9.62 86.91 8.29 86.01 6.96 85.11 C 5.65 86.00 4.35 86.89 3.04 87.78 C 3.35 86.27 3.67 84.77 3.98 83.26 C 2.64 82.40 1.30 81.54 0.00 80.63 L 0.00 80.34 C 1.66 80.41 3.32 80.47 4.97 80.53 Z" />
<path fill="#3c3c3e" opacity="1.00" d=" M 232.12 80.61 C 232.69 79.41 233.26 78.21 233.83 77.01 C 235.21 79.86 237.88 81.13 241.00 80.42 L 241.00 80.59 C 239.70 81.51 238.36 82.39 237.03 83.27 C 237.33 84.77 237.65 86.28 237.96 87.78 C 236.65 86.89 235.35 86.00 234.04 85.11 C 232.72 86.01 231.39 86.90 230.07 87.80 C 230.40 86.28 230.72 84.76 231.05 83.24 C 229.71 82.27 228.37 81.31 227.04 80.34 C 228.73 80.43 230.42 80.52 232.12 80.61 Z" />
</g>
<g id="#2121228c">
<path fill="#212122" opacity="0.55" d=" M 193.97 31.05 C 194.39 30.77 195.22 30.23 195.64 29.95 C 196.95 30.10 197.56 32.45 196.08 32.82 C 194.81 32.85 194.11 32.25 193.97 31.05 Z" />
</g>
<g id="#0c0c0c32">
<path fill="#0c0c0c" opacity="0.20" d=" M 29.45 36.25 C 30.36 35.25 32.35 36.64 31.48 37.79 C 30.57 38.80 28.58 37.40 29.45 36.25 Z" />
</g>
<g id="#0b0b0c33">
<path fill="#0b0b0c" opacity="0.20" d=" M 211.76 44.47 C 212.26 43.59 213.00 43.08 213.99 42.93 C 214.17 44.70 213.43 45.22 211.76 44.47 Z" />
</g>
<g id="#2b2b2cb6">
<path fill="#2b2b2c" opacity="0.71" d=" M 19.50 53.86 C 19.53 53.13 19.57 52.41 19.63 51.68 C 20.30 51.95 21.65 52.48 22.33 52.75 C 22.50 53.28 22.84 54.36 23.01 54.90 C 21.84 54.56 20.67 54.21 19.50 53.86 Z" />
</g>
<g id="#3c3b3eff">
<path fill="#3c3b3e" opacity="1.00" d=" M 136.08 121.98 C 135.98 118.37 138.59 115.03 142.17 114.41 C 146.56 113.52 152.50 113.71 155.00 118.10 C 156.81 122.66 155.87 127.73 155.83 132.52 C 153.33 132.49 150.83 132.50 148.34 132.52 C 148.32 128.40 148.28 124.28 148.09 120.17 C 147.57 119.90 146.53 119.38 146.00 119.11 C 145.48 119.38 144.43 119.90 143.91 120.16 C 143.57 132.39 143.58 144.64 143.90 156.87 C 144.43 157.11 145.48 157.60 146.00 157.84 C 146.53 157.60 147.59 157.11 148.12 156.87 C 148.32 152.95 148.32 149.02 148.17 145.10 C 147.46 144.91 146.05 144.53 145.35 144.34 C 145.29 142.59 145.23 140.85 145.17 139.10 C 148.77 139.01 152.37 138.98 155.98 138.99 C 156.02 146.66 156.03 154.33 155.97 162.00 C 155.24 162.02 153.77 162.05 153.04 162.06 C 152.68 161.64 151.97 160.79 151.61 160.37 C 149.70 161.31 147.78 162.24 145.80 163.00 L 144.26 163.00 C 141.39 162.38 137.89 161.51 136.65 158.52 C 135.71 155.44 136.01 152.16 135.95 148.99 C 136.17 139.99 135.77 130.98 136.08 121.98 Z" />
<path fill="#3c3b3e" opacity="1.00" d=" M 0.64 115.01 C 7.68 115.01 14.72 114.94 21.76 115.08 C 21.76 117.02 21.76 118.97 21.76 120.91 C 19.51 120.96 17.25 120.99 15.00 121.03 C 15.01 134.70 14.99 148.36 15.00 162.03 C 12.41 161.99 9.82 161.96 7.23 161.92 C 7.34 148.29 7.32 134.65 7.23 121.02 C 5.03 121.01 2.83 120.99 0.64 120.98 C 0.63 118.99 0.63 117.00 0.64 115.01 Z" />
<path fill="#3c3b3e" opacity="1.00" d=" M 25.00 115.01 C 29.63 115.07 34.29 114.69 38.89 115.36 C 41.73 115.77 44.56 117.92 44.77 120.96 C 45.18 124.90 45.30 128.94 44.63 132.86 C 43.96 135.86 40.66 136.74 38.09 137.43 C 40.56 138.32 44.17 139.00 44.52 142.16 C 45.14 148.76 45.01 155.41 45.55 162.01 C 43.02 161.99 40.50 161.96 37.97 161.91 C 36.89 155.69 37.65 149.36 37.07 143.12 C 37.08 140.81 34.39 141.11 32.85 140.45 C 32.60 147.60 32.69 154.76 32.78 161.92 C 30.18 161.96 27.59 162.00 25.00 162.03 C 25.00 146.36 24.99 130.68 25.00 115.01 M 32.80 120.55 C 32.67 125.39 32.66 130.23 32.81 135.07 C 34.15 134.93 35.50 134.78 36.85 134.64 C 37.47 130.08 37.41 125.47 37.04 120.90 C 35.63 120.78 34.21 120.66 32.80 120.55 Z" />
<path fill="#3c3b3e" opacity="1.00" d=" M 53.42 115.13 C 57.32 114.99 61.21 114.97 65.11 115.01 C 66.93 130.69 69.03 146.34 70.91 162.01 C 68.32 161.99 65.74 161.97 63.16 161.92 C 62.81 157.63 62.41 153.35 61.88 149.08 C 60.02 149.06 58.15 149.06 56.29 149.07 C 55.71 153.34 55.21 157.62 54.81 161.92 C 52.48 161.96 50.14 161.98 47.81 162.01 C 49.66 146.38 52.00 130.80 53.42 115.13 M 57.11 142.89 C 58.40 142.94 59.70 142.98 61.00 143.03 C 60.64 136.28 60.21 129.54 59.31 122.85 C 57.93 129.44 57.79 136.21 57.11 142.89 Z" />
<path fill="#3c3b3e" opacity="1.00" d=" M 69.58 114.96 C 72.21 115.00 74.84 115.06 77.47 115.15 C 77.80 121.76 78.99 128.28 79.64 134.86 C 80.31 140.96 80.30 147.14 81.52 153.17 C 82.70 140.46 83.79 127.75 85.26 115.07 C 87.80 115.03 90.34 115.01 92.88 114.99 C 91.25 130.69 88.63 146.26 87.00 161.97 C 83.07 162.01 79.14 162.01 75.22 161.93 C 73.43 146.26 71.45 130.62 69.58 114.96 Z" />
<path fill="#3c3b3e" opacity="1.00" d=" M 95.22 115.08 C 100.93 114.95 106.65 114.99 112.36 115.01 C 112.37 117.00 112.37 119.00 112.36 120.99 C 109.24 120.99 106.12 121.00 103.00 121.01 C 103.00 125.34 103.00 129.67 103.00 134.00 C 106.00 134.00 109.00 134.00 112.00 134.00 C 112.00 136.00 112.00 138.00 112.00 140.00 C 109.00 140.00 106.00 140.00 103.00 140.00 C 103.00 145.33 103.00 150.66 103.00 155.99 C 106.12 156.00 109.24 156.00 112.36 156.01 C 112.37 158.00 112.37 159.99 112.37 161.99 C 106.65 162.01 100.94 162.04 95.22 161.92 C 95.33 146.31 95.34 130.69 95.22 115.08 Z" />
<path fill="#3c3b3e" opacity="1.00" d=" M 115.22 115.08 C 117.81 115.04 120.41 115.00 123.00 114.97 C 122.99 128.64 123.01 142.31 123.00 155.98 C 126.25 155.99 129.50 156.02 132.76 156.08 C 132.75 158.02 132.75 159.97 132.76 161.92 C 126.92 162.04 121.07 162.04 115.23 161.92 C 115.33 146.31 115.34 130.69 115.22 115.08 Z" />
<path fill="#3c3b3e" opacity="1.00" d=" M 160.00 115.01 C 164.63 115.07 169.29 114.69 173.89 115.37 C 176.73 115.78 179.56 117.91 179.76 120.96 C 180.17 124.90 180.30 128.94 179.63 132.86 C 178.95 135.86 175.66 136.74 173.10 137.43 C 175.56 138.32 179.18 139.00 179.52 142.17 C 180.14 148.76 180.01 155.41 180.55 162.01 C 178.02 161.99 175.50 161.96 172.98 161.91 C 171.88 155.69 172.66 149.36 172.07 143.12 C 172.07 140.82 169.39 141.11 167.85 140.44 C 167.60 147.60 167.69 154.76 167.77 161.92 C 165.18 161.96 162.59 162.00 160.00 162.03 C 160.00 146.35 160.00 130.68 160.00 115.01 M 167.81 120.55 C 167.67 125.39 167.66 130.23 167.81 135.07 C 169.15 134.93 170.50 134.78 171.85 134.64 C 172.47 130.09 172.41 125.48 172.04 120.90 C 170.63 120.78 169.21 120.66 167.81 120.55 Z" />
<path fill="#3c3b3e" opacity="1.00" d=" M 188.43 115.13 C 192.32 114.99 196.21 114.97 200.10 115.01 C 201.93 130.69 204.03 146.34 205.91 162.01 C 203.32 161.99 200.74 161.96 198.15 161.92 C 197.81 157.63 197.40 153.34 196.87 149.07 C 195.01 149.06 193.15 149.06 191.29 149.07 C 190.71 153.34 190.21 157.62 189.81 161.92 C 187.47 161.96 185.14 161.98 182.81 162.00 C 184.67 146.38 186.99 130.80 188.43 115.13 M 192.11 142.90 C 193.40 142.94 194.70 142.98 196.00 143.03 C 195.64 136.28 195.22 129.53 194.30 122.84 C 192.95 129.44 192.78 136.21 192.11 142.90 Z" />
<path fill="#3c3b3e" opacity="1.00" d=" M 208.23 115.07 C 212.06 114.99 215.89 114.99 219.73 115.05 C 220.85 126.43 222.84 137.71 223.49 149.13 C 224.06 137.76 225.26 126.45 226.44 115.13 C 230.29 115.00 234.15 114.97 238.00 114.99 C 238.00 130.67 238.00 146.35 238.00 162.03 C 235.74 161.99 233.48 161.95 231.22 161.91 C 231.56 149.21 230.82 136.50 231.67 123.82 C 230.11 129.37 230.11 135.18 229.38 140.87 C 228.79 147.94 227.36 154.90 226.75 161.97 C 224.31 161.96 221.88 161.93 219.44 161.89 C 218.49 153.56 217.63 145.23 216.57 136.92 C 216.01 132.55 215.99 128.07 214.54 123.87 C 215.43 136.57 214.82 149.31 215.00 162.03 C 212.74 161.99 210.48 161.95 208.22 161.91 C 208.34 146.30 208.33 130.68 208.23 115.07 Z" />
</g>
</svg>
