<?xml version="1.0" encoding="UTF-8" ?>
<!DOCTYPE svg PUBLIC "-//W3C//DTD SVG 1.1//EN" "http://www.w3.org/Graphics/SVG/1.1/DTD/svg11.dtd">
<svg width="241pt" height="163pt" viewBox="0 0 241 163" version="1.1" xmlns="http://www.w3.org/2000/svg">
<g id="#3b3b3dfc">
<path fill="#3b3b3d" opacity="1.00" d=" M 116.05 0.00 L 116.52 0.00 C 117.16 1.31 117.76 2.65 118.35 3.99 C 119.08 2.75 119.82 1.52 120.56 0.30 C 120.33 3.34 119.74 6.35 118.92 9.28 C 118.13 8.29 117.35 7.29 116.58 6.28 C 115.84 7.20 115.12 8.12 114.27 8.94 C 113.24 6.25 112.64 3.43 112.13 0.61 C 113.03 1.97 113.90 3.36 114.77 4.75 C 115.20 3.17 115.63 1.58 116.05 0.00 Z" />
<path fill="#3b3b3d" opacity="1.00" d=" M 129.01 0.00 L 131.17 0.00 C 131.89 3.19 131.89 6.47 131.38 9.70 C 130.20 9.54 129.01 9.41 127.86 9.14 C 126.24 6.20 127.43 2.69 129.01 0.00 M 128.88 1.81 C 128.72 4.03 128.66 6.27 128.75 8.50 C 130.99 7.35 132.00 2.28 128.88 1.81 Z" />
<path fill="#3b3b3d" opacity="1.00" d=" M 139.17 1.17 C 140.36 1.53 141.56 1.90 142.76 2.27 C 142.64 4.96 142.62 7.73 141.55 10.24 C 140.89 8.84 140.28 7.43 139.68 6.01 C 139.08 7.49 138.88 9.38 137.24 10.11 C 137.46 8.17 137.78 6.23 138.11 4.30 C 139.27 4.48 140.42 4.66 141.58 4.83 C 141.62 4.49 141.71 3.80 141.75 3.46 C 140.97 3.38 139.42 3.23 138.65 3.16 C 138.78 2.66 139.04 1.66 139.17 1.17 Z" />
<path fill="#3b3b3d" opacity="1.00" d=" M 91.23 3.44 C 92.78 3.32 94.33 3.20 95.88 3.08 C 94.88 4.01 93.87 4.94 92.88 5.87 C 93.81 6.38 94.74 6.88 95.67 7.39 C 95.08 8.12 94.50 8.86 93.91 9.59 C 95.09 10.21 96.25 10.88 97.23 11.78 C 95.76 11.74 94.28 11.66 92.81 11.55 C 92.31 8.84 91.76 6.15 91.23 3.44 Z" />
<path fill="#3b3b3d" opacity="1.00" d=" M 147.32 11.81 C 148.20 8.70 148.93 5.45 150.82 2.75 C 150.65 5.17 150.25 7.56 149.75 9.92 C 150.44 10.67 151.12 11.41 151.80 12.16 C 151.42 12.07 150.64 11.89 150.25 11.80 C 149.52 11.80 148.06 11.81 147.32 11.81 Z" />
<path fill="#3b3b3d" opacity="1.00" d=" M 83.53 4.74 C 85.98 7.16 86.36 10.72 87.10 13.90 C 86.04 12.77 84.99 11.62 83.94 10.47 C 83.83 11.46 83.61 13.45 83.51 14.44 C 81.91 11.82 80.97 8.88 80.22 5.92 C 81.47 7.00 82.68 8.12 83.90 9.23 C 83.76 7.74 83.62 6.24 83.53 4.74 Z" />
<path fill="#3b3b3d" opacity="1.00" d=" M 160.18 5.98 C 161.32 6.20 162.47 6.43 163.61 6.65 C 163.97 9.82 162.95 13.12 160.06 14.79 C 160.92 12.36 161.82 9.94 162.42 7.43 C 159.44 8.28 159.75 11.81 159.02 14.21 C 158.56 14.11 157.64 13.91 157.19 13.81 C 158.07 11.16 159.07 8.54 160.18 5.98 Z" />
<path fill="#3b3b3d" opacity="1.00" d=" M 69.12 9.50 C 70.98 9.06 72.85 8.62 74.72 8.18 C 74.19 9.07 73.67 9.97 73.15 10.87 C 74.09 12.94 75.04 15.02 75.78 17.18 C 72.95 15.18 71.94 11.55 69.12 9.50 Z" />
<path fill="#3b3b3d" opacity="1.00" d=" M 179.44 13.30 C 180.90 12.64 182.14 13.91 183.37 14.48 C 182.45 14.59 180.60 14.80 179.68 14.91 C 179.99 15.92 180.31 16.93 180.64 17.94 C 179.48 18.13 178.32 18.34 177.17 18.54 C 178.00 19.77 178.85 20.98 179.69 22.20 C 178.26 21.54 176.84 20.87 175.42 20.19 C 176.68 17.85 177.79 15.40 179.44 13.30 Z" />
<path fill="#3b3b3d" opacity="1.00" d=" M 50.94 18.31 C 52.16 17.82 53.39 17.32 54.61 16.84 C 54.01 17.99 53.40 19.14 52.81 20.29 C 54.14 20.40 55.48 20.50 56.82 20.59 C 56.16 21.48 55.50 22.38 54.84 23.28 C 56.30 23.46 57.76 23.64 59.22 23.84 C 58.05 24.66 56.79 25.36 55.49 25.95 C 53.79 23.52 52.14 21.03 50.94 18.31 Z" />
<path fill="#3b3b3d" opacity="1.00" d=" M 188.03 19.57 C 188.41 20.70 188.80 21.84 189.18 22.97 C 189.80 22.52 190.42 22.08 191.04 21.64 C 192.03 20.97 193.05 20.34 194.10 19.77 C 191.99 22.66 189.24 25.01 186.21 26.89 C 186.33 26.33 186.57 25.22 186.69 24.67 C 186.71 24.61 186.74 24.49 186.75 24.43 C 187.16 22.80 187.60 21.19 188.03 19.57 Z" />
<path fill="#3b3b3d" opacity="1.00" d=" M 41.05 24.75 C 42.31 24.22 43.47 23.23 44.89 23.24 C 47.44 24.72 48.87 27.46 50.52 29.80 C 49.02 29.06 47.54 28.29 46.05 27.54 C 46.63 29.06 47.21 30.57 47.75 32.11 C 45.22 29.94 43.12 27.35 41.05 24.75 M 43.49 24.95 C 42.56 26.25 44.76 27.83 45.72 26.58 C 46.67 25.28 44.45 23.66 43.49 24.95 Z" />
<path fill="#3b3b3d" opacity="1.00" d=" M 193.96 30.96 C 195.34 28.14 197.30 23.59 201.19 24.55 C 201.37 25.00 201.71 25.91 201.89 26.36 C 200.54 26.45 199.19 26.54 197.84 26.66 C 198.50 27.64 199.18 28.62 199.85 29.60 C 198.90 29.47 197.95 29.33 197.00 29.20 C 196.67 29.39 196.01 29.76 195.67 29.95 C 195.24 30.21 194.38 30.71 193.96 30.96 Z" />
<path fill="#3b3b3d" opacity="1.00" d=" M 34.96 28.98 C 38.14 30.39 40.55 33.06 42.11 36.12 C 39.04 34.56 36.61 31.98 34.96 28.98 Z" />
<path fill="#3b3b3d" opacity="1.00" d=" M 200.97 36.73 C 202.88 33.84 205.42 31.47 207.99 29.18 C 208.88 30.23 209.78 31.26 210.67 32.31 C 210.19 32.85 209.70 33.38 209.21 33.90 C 208.64 32.92 208.07 31.94 207.50 30.97 C 206.38 32.46 205.78 33.94 208.27 34.39 C 206.90 35.96 205.52 37.52 204.09 39.03 C 204.49 37.57 204.92 36.11 205.35 34.64 C 203.89 35.35 202.44 36.05 200.97 36.73 Z" />
<path fill="#3b3b3d" opacity="1.00" d=" M 27.00 36.74 C 27.98 35.87 28.95 35.01 29.93 34.15 C 30.89 34.84 31.84 35.53 32.80 36.22 C 32.71 37.39 32.62 38.56 32.53 39.73 C 33.33 40.79 34.12 41.87 34.89 42.96 C 31.82 41.50 29.39 39.09 27.00 36.74 M 29.45 36.25 C 28.57 37.40 30.56 38.81 31.47 37.79 C 32.33 36.64 30.35 35.24 29.45 36.25 Z" />
<path fill="#3b3b3d" opacity="1.00" d=" M 210.23 45.29 C 212.40 42.52 214.44 39.65 216.49 36.79 C 216.36 38.08 216.22 39.36 216.08 40.65 C 217.43 40.56 218.78 40.48 220.15 40.45 C 218.52 42.12 216.09 42.33 213.96 42.92 C 212.97 43.08 212.23 43.60 211.73 44.50 C 211.35 44.69 210.60 45.09 210.23 45.29 Z" />
<path fill="#3b3b3d" opacity="1.00" d=" M 21.25 45.69 C 19.23 43.34 21.97 41.53 24.28 41.75 C 23.44 42.74 22.67 43.78 21.82 44.76 C 24.14 44.75 26.47 44.80 28.78 45.03 C 28.71 46.28 28.63 47.53 28.55 48.78 C 27.24 48.65 25.93 48.46 24.65 48.16 C 25.81 47.54 26.98 46.94 28.17 46.36 C 25.86 46.21 23.50 46.33 21.25 45.69 Z" />
<path fill="#3b3b3d" opacity="1.00" d=" M 216.00 51.60 C 218.23 49.30 220.86 47.28 223.89 46.15 C 225.35 45.87 225.91 47.79 225.86 48.91 C 223.71 51.99 219.35 54.49 216.00 51.60 M 218.43 52.14 C 220.96 51.45 223.46 50.21 224.44 47.60 C 222.02 48.46 219.51 49.62 218.43 52.14 Z" />
<path fill="#3b3b3d" opacity="1.00" d=" M 15.99 49.42 C 17.25 50.08 18.51 50.74 19.78 51.38 C 19.69 52.24 19.62 53.09 19.57 53.95 C 19.58 55.14 20.38 56.15 20.77 57.24 C 17.98 55.65 15.22 54.01 12.74 51.97 C 14.14 51.99 15.54 52.01 16.95 52.05 C 16.71 51.39 16.23 50.08 15.99 49.42 Z" />
<path fill="#3b3b3d" opacity="1.00" d=" M 222.18 58.43 C 225.46 57.27 228.77 56.15 232.16 55.33 C 230.41 58.48 227.63 60.89 224.57 62.71 C 225.01 61.49 225.47 60.28 225.93 59.07 C 225.01 59.12 224.10 59.18 223.19 59.24 C 222.93 59.04 222.43 58.63 222.18 58.43 Z" />
<path fill="#3b3b3d" opacity="1.00" d=" M 7.87 57.21 C 11.32 58.39 15.11 59.62 17.33 62.73 C 13.98 61.32 10.17 60.21 7.87 57.21 Z" />
<path fill="#3b3b3d" opacity="1.00" d=" M 228.93 68.92 C 231.78 66.94 234.47 64.71 236.85 62.18 C 236.62 63.40 236.39 64.61 236.17 65.83 C 237.18 66.36 238.21 66.88 239.22 67.42 C 235.76 67.66 232.31 68.11 228.93 68.92 Z" />
</g>
<g id="#1111124a">
<path fill="#111112" opacity="0.29" d=" M 150.25 11.80 C 150.64 11.89 151.42 12.07 151.80 12.16 C 150.99 13.56 150.47 13.44 150.25 11.80 Z" />
</g>
<g id="#1d1d1e7d">
<path fill="#1d1d1e" opacity="0.49" d=" M 188.03 19.57 C 188.74 18.89 189.46 18.22 190.18 17.55 C 190.46 18.91 190.75 20.28 191.04 21.64 C 190.42 22.08 189.80 22.52 189.18 22.97 C 188.80 21.84 188.41 20.70 188.03 19.57 Z" />
</g>
<g id="#1515165e">
<path fill="#151516" opacity="0.37" d=" M 186.69 24.67 C 186.71 24.61 186.74 24.49 186.75 24.43 C 186.74 24.49 186.71 24.61 186.69 24.67 Z" />
</g>
<g id="#2121228c">
<path fill="#212122" opacity="0.55" d=" M 193.96 30.96 C 194.38 30.71 195.24 30.21 195.67 29.95 C 196.96 30.12 197.54 32.46 196.07 32.81 C 194.79 32.80 194.08 32.18 193.96 30.96 Z" />
</g>
<g id="#ffffffff">
<path fill="#ffffff" opacity="1.00" d=" M 112.01 40.98 C 115.42 38.35 117.51 33.68 122.10 32.87 C 126.44 32.08 130.05 35.25 132.85 38.12 C 143.27 48.98 152.31 61.04 161.75 72.73 C 165.36 69.65 168.83 66.37 172.82 63.78 C 175.07 62.29 178.06 61.39 180.63 62.64 C 183.47 64.00 184.65 67.16 186.64 69.40 C 198.48 82.80 210.80 95.79 222.50 109.31 C 215.40 109.33 208.25 109.71 201.17 109.16 C 198.26 106.84 195.15 104.30 193.82 100.69 C 195.14 100.23 196.46 99.75 197.78 99.27 C 195.79 96.80 193.74 93.24 190.08 93.43 C 185.44 93.51 179.82 93.26 176.84 89.13 C 174.96 86.08 173.21 82.64 169.79 81.05 C 168.19 80.00 166.18 80.75 164.99 82.04 C 160.63 86.33 157.92 92.22 152.75 95.70 C 146.86 99.45 139.70 100.41 132.86 100.62 C 139.41 93.30 146.89 86.87 153.87 79.95 C 150.84 78.16 147.72 76.31 145.51 73.49 C 141.89 68.89 139.75 63.35 136.36 58.61 C 135.25 56.99 133.38 55.53 131.30 56.06 C 127.26 57.24 124.14 60.30 121.81 63.69 C 118.02 68.90 110.75 69.03 104.99 68.00 C 100.46 67.09 96.97 70.82 94.45 74.02 C 95.90 74.71 97.35 75.38 98.80 76.08 C 97.33 78.56 95.13 80.44 92.86 82.16 C 98.81 88.48 105.65 93.95 111.26 100.60 C 104.62 100.43 97.75 99.45 91.95 96.01 C 86.46 92.53 83.70 86.33 79.11 81.93 C 77.90 80.63 75.85 80.04 74.30 81.14 C 70.89 82.78 69.22 86.27 67.29 89.30 C 64.22 93.32 58.67 93.49 54.04 93.44 C 50.41 93.42 48.13 96.78 46.60 99.64 C 47.52 99.85 49.38 100.28 50.30 100.49 C 49.42 104.44 45.71 106.67 43.04 109.38 C 35.91 109.39 28.78 109.49 21.66 109.31 C 30.76 98.89 40.20 88.78 49.43 78.49 C 53.03 74.36 57.08 70.61 60.08 66.00 C 61.54 63.66 64.07 61.65 67.00 62.09 C 71.55 62.79 74.84 66.38 78.28 69.11 C 89.70 59.95 100.72 50.31 112.01 40.98 Z" />
<path fill="#ffffff" opacity="1.00" d=" M 6.77 76.27 C 7.43 77.75 8.09 79.23 8.75 80.71 C 10.46 80.66 12.16 80.61 13.87 80.55 C 12.54 81.45 11.21 82.35 9.87 83.25 C 10.21 84.74 10.55 86.24 10.89 87.74 C 9.61 86.90 8.34 86.04 7.03 85.23 C 5.58 86.14 4.14 87.06 2.62 87.85 C 3.06 86.44 3.52 85.03 3.97 83.62 C 2.68 82.62 1.33 81.71 0.00 80.76 L 0.00 80.44 C 1.74 80.57 3.48 80.66 5.22 80.75 C 5.74 79.25 6.26 77.76 6.77 76.27 Z" />
<path fill="#ffffff" opacity="1.00" d=" M 232.26 80.71 C 232.91 79.23 233.57 77.75 234.23 76.28 C 234.74 77.77 235.26 79.25 235.78 80.74 C 237.52 80.66 239.26 80.58 241.00 80.47 L 241.00 80.47 C 239.70 81.59 238.01 82.36 237.06 83.82 C 237.37 85.23 237.86 86.58 238.32 87.94 C 236.91 87.01 235.48 86.09 234.06 85.18 C 232.74 86.04 231.43 86.90 230.12 87.77 C 230.45 86.26 230.79 84.75 231.12 83.24 C 229.79 82.35 228.46 81.45 227.13 80.56 C 228.84 80.61 230.54 80.66 232.26 80.71 Z" />
<path fill="#ffffff" opacity="1.00" d=" M 136.05 121.87 C 135.85 118.21 138.66 115.06 142.19 114.45 C 146.69 113.45 152.99 113.86 155.28 118.54 C 156.65 122.98 155.86 127.73 155.90 132.31 C 153.37 132.29 150.84 132.28 148.32 132.29 C 148.29 128.10 148.29 123.90 148.09 119.71 C 146.69 119.70 145.30 119.71 143.91 119.72 C 143.62 132.23 143.62 144.77 143.91 157.28 C 145.30 157.29 146.69 157.29 148.09 157.28 C 148.31 153.12 148.30 148.96 148.24 144.80 C 147.51 144.66 146.04 144.37 145.31 144.23 C 145.27 142.51 145.24 140.79 145.19 139.07 C 148.79 138.99 152.39 138.98 155.99 139.00 C 155.98 146.79 156.08 154.58 155.93 162.37 C 154.28 162.02 152.65 161.52 151.21 160.61 C 149.49 161.51 147.75 162.39 145.90 163.00 L 144.25 163.00 C 141.92 162.63 139.43 162.04 137.80 160.20 C 135.71 158.03 136.08 154.78 135.96 152.02 C 136.10 141.97 135.87 131.92 136.05 121.87 Z" />
<path fill="#ffffff" opacity="1.00" d=" M 0.55 115.00 C 7.62 115.02 14.69 114.95 21.76 115.05 C 21.75 117.01 21.75 118.98 21.76 120.95 C 19.50 120.98 17.25 121.00 15.00 121.03 C 14.99 134.69 15.01 148.35 14.99 162.01 C 12.41 162.00 9.83 161.99 7.24 161.96 C 7.28 148.31 7.28 134.66 7.25 121.02 C 5.01 121.00 2.78 121.00 0.55 120.99 C 0.54 118.99 0.55 117.00 0.55 115.00 Z" />
<path fill="#ffffff" opacity="1.00" d=" M 25.01 115.01 C 29.38 115.07 33.78 114.74 38.14 115.24 C 40.69 115.52 43.42 116.84 44.36 119.39 C 45.25 122.17 45.00 125.15 45.05 128.03 C 44.93 130.46 45.19 133.38 43.22 135.19 C 41.62 136.79 39.24 136.95 37.16 137.44 C 39.28 137.90 41.69 138.10 43.32 139.70 C 44.90 141.36 44.64 143.82 44.82 145.93 C 44.98 151.30 45.11 156.68 45.75 162.02 C 43.19 162.01 40.64 161.99 38.08 161.93 C 36.93 155.71 37.50 149.37 37.12 143.11 C 36.97 140.86 34.40 140.94 32.79 140.49 C 32.67 147.65 32.74 154.80 32.76 161.96 C 30.17 161.99 27.59 162.00 25.01 162.01 C 24.99 146.34 25.00 130.68 25.01 115.01 M 32.76 120.35 C 32.71 125.28 32.70 130.20 32.78 135.13 C 34.12 134.96 35.46 134.79 36.79 134.61 C 37.43 130.47 37.51 126.23 37.09 122.06 C 36.69 120.04 34.20 120.69 32.76 120.35 Z" />
<path fill="#ffffff" opacity="1.00" d=" M 53.57 115.09 C 57.43 114.96 61.29 114.97 65.14 115.02 C 67.04 130.69 69.06 146.35 70.99 162.02 C 68.39 162.01 65.80 161.99 63.21 161.92 C 62.74 157.63 62.31 153.34 61.81 149.05 C 59.99 149.03 58.17 149.02 56.35 149.01 C 55.82 153.32 55.26 157.63 54.75 161.94 C 52.41 161.98 50.08 162.00 47.74 162.01 C 49.70 146.37 51.72 130.74 53.57 115.09 M 57.12 142.96 C 58.43 142.98 59.74 143.00 61.04 143.02 C 60.52 136.32 60.11 129.60 59.32 122.93 C 58.06 129.53 57.85 136.28 57.12 142.96 Z" />
<path fill="#ffffff" opacity="1.00" d=" M 69.52 114.97 C 72.12 114.98 74.71 115.01 77.30 115.12 C 78.86 127.74 79.96 140.41 81.52 153.01 C 82.46 140.33 83.92 127.69 85.29 115.05 C 87.84 115.01 90.39 114.99 92.95 114.99 C 91.01 130.66 88.87 146.31 86.92 161.99 C 83.04 162.02 79.16 162.02 75.28 161.94 C 73.42 146.28 71.43 130.63 69.52 114.97 Z" />
<path fill="#ffffff" opacity="1.00" d=" M 95.24 115.04 C 100.98 114.96 106.71 115.01 112.45 115.00 C 112.45 117.00 112.45 119.00 112.45 121.00 C 109.30 121.00 106.15 121.00 103.01 121.00 C 102.99 125.33 102.99 129.66 103.01 133.99 C 106.00 134.00 109.00 134.00 112.00 134.01 C 112.00 136.00 112.00 138.00 112.00 139.99 C 109.00 140.00 106.00 140.00 103.01 140.01 C 102.99 145.34 102.99 150.67 103.01 156.00 C 106.15 156.00 109.30 156.00 112.45 156.00 C 112.45 158.00 112.45 160.00 112.45 162.00 C 106.71 161.99 100.98 162.04 95.24 161.95 C 95.28 146.32 95.28 130.68 95.24 115.04 Z" />
<path fill="#ffffff" opacity="1.00" d=" M 115.24 115.04 C 117.82 115.01 120.41 114.99 122.99 114.99 C 123.02 128.66 122.98 142.33 123.01 155.99 C 126.26 155.99 129.51 156.00 132.76 156.05 C 132.75 158.01 132.75 159.98 132.76 161.95 C 126.92 162.03 121.08 162.03 115.24 161.96 C 115.28 146.32 115.28 130.68 115.24 115.04 Z" />
<path fill="#ffffff" opacity="1.00" d=" M 160.01 115.01 C 164.68 115.10 169.39 114.64 174.03 115.40 C 176.85 115.83 179.50 118.00 179.77 120.97 C 180.14 124.90 180.30 128.94 179.61 132.84 C 178.83 136.14 175.14 136.94 172.28 137.45 C 174.36 137.94 176.73 138.13 178.32 139.70 C 179.90 141.36 179.64 143.82 179.82 145.92 C 179.98 151.30 180.11 156.68 180.75 162.02 C 178.19 162.01 175.64 161.99 173.08 161.93 C 171.93 155.71 172.50 149.37 172.12 143.11 C 171.97 140.87 169.40 140.94 167.79 140.49 C 167.67 147.64 167.74 154.80 167.76 161.96 C 165.17 161.99 162.59 162.00 160.01 162.01 C 159.99 146.34 160.00 130.68 160.01 115.01 M 167.76 120.35 C 167.71 125.28 167.70 130.21 167.78 135.13 C 169.12 134.96 170.45 134.79 171.79 134.61 C 172.43 130.46 172.51 126.23 172.09 122.06 C 171.70 120.04 169.19 120.70 167.76 120.35 Z" />
<path fill="#ffffff" opacity="1.00" d=" M 188.57 115.09 C 192.43 114.96 196.29 114.97 200.14 115.02 C 202.04 130.69 204.06 146.35 205.99 162.02 C 203.39 162.01 200.80 161.99 198.21 161.92 C 197.74 157.63 197.31 153.34 196.81 149.05 C 194.99 149.03 193.17 149.02 191.35 149.01 C 190.82 153.32 190.26 157.63 189.75 161.94 C 187.41 161.98 185.07 162.00 182.74 162.01 C 184.70 146.37 186.72 130.74 188.57 115.09 M 192.12 142.96 C 193.43 142.98 194.73 143.00 196.04 143.02 C 195.52 136.31 195.10 129.60 194.32 122.92 C 193.06 129.52 192.85 136.28 192.12 142.96 Z" />
<path fill="#ffffff" opacity="1.00" d=" M 208.24 115.05 C 212.05 114.97 215.87 114.97 219.69 115.06 C 221.06 126.68 222.93 138.24 223.53 149.94 C 223.99 138.28 225.27 126.68 226.56 115.09 C 230.37 114.97 234.18 114.97 238.00 115.01 C 238.00 130.68 238.01 146.35 237.99 162.01 C 235.74 162.00 233.49 161.99 231.24 161.96 C 231.33 149.06 231.10 136.15 231.56 123.25 C 229.68 136.11 228.60 149.10 226.71 161.97 C 224.32 161.99 221.93 161.98 219.55 161.93 C 217.78 148.98 216.81 135.91 214.58 123.05 C 215.39 136.02 214.85 149.03 214.99 162.01 C 212.74 162.00 210.49 161.99 208.24 161.96 C 208.28 146.32 208.28 130.69 208.24 115.05 Z" />
</g>
<g id="#0c0c0c32">
<path fill="#0c0c0c" opacity="0.20" d=" M 29.45 36.25 C 30.35 35.24 32.33 36.64 31.47 37.79 C 30.56 38.81 28.57 37.40 29.45 36.25 Z" />
</g>
<g id="#0b0b0c33">
<path fill="#0b0b0c" opacity="0.20" d=" M 211.73 44.50 C 212.23 43.60 212.97 43.08 213.96 42.92 C 214.14 44.70 213.40 45.22 211.73 44.50 Z" />
</g>
<g id="#2b2b2cb6">
<path fill="#2b2b2c" opacity="0.71" d=" M 19.57 53.95 C 19.62 53.09 19.69 52.24 19.78 51.38 C 21.19 52.26 22.70 53.19 23.23 54.88 C 22.00 54.59 20.78 54.28 19.57 53.95 Z" />
</g>
</svg>
